{
  "extensionsUsed": [
    "CVTOOLS_unity_metadata",
    "KHR_texture_transform",
    "KHR_materials_common"
  ],
  "accessors": [
    {
      "bufferView": 0,
      "componentType": 5126,
      "count": 121,
      "type": "VEC3",
      "max": [
        5.0,
        1.1102230246251565E-16,
        5.0
      ],
      "min": [
        -5.0,
        -1.1102230246251565E-16,
        -5.0
      ]
    },
    {
      "bufferView": 1,
      "componentType": 5126,
      "count": 121,
      "type": "VEC3",
      "max": [
        0.0,
        1.0,
        0.0
      ],
      "min": [
        0.0,
        1.0,
        0.0
      ]
    },
    {
      "bufferView": 2,
      "componentType": 5126,
      "count": 121,
      "type": "VEC4",
      "max": [
        -1.0,
        0.0,
        0.0,
        1.0
      ],
      "min": [
        -1.0,
        0.0,
        0.0,
        1.0
      ]
    },
    {
      "bufferView": 3,
      "componentType": 5126,
      "count": 121,
      "type": "VEC2",
      "max": [
        1.0,
        1.0
      ],
      "min": [
        0.0,
        0.0
      ]
    },
    {
      "bufferView": 4,
      "componentType": 5126,
      "count": 121,
      "type": "VEC2",
      "max": [
        1.0,
        1.0
      ],
      "min": [
        0.0,
        0.0
      ]
    },
    {
      "bufferView": 5,
      "componentType": 5125,
      "count": 600,
      "type": "SCALAR",
      "max": [
        120.0
      ],
      "min": [
        0.0
      ]
    },
    {
      "bufferView": 6,
      "componentType": 5126,
      "count": 24,
      "type": "VEC3",
      "max": [
        0.5,
        0.5,
        0.5
      ],
      "min": [
        -0.5,
        -0.5,
        -0.5
      ]
    },
    {
      "bufferView": 7,
      "componentType": 5126,
      "count": 24,
      "type": "VEC3",
      "max": [
        1.0,
        1.0,
        1.0
      ],
      "min": [
        -1.0,
        -1.0,
        -1.0
      ]
    },
    {
      "bufferView": 8,
      "componentType": 5126,
      "count": 24,
      "type": "VEC4",
      "max": [
        0.0,
        0.0,
        1.0,
        1.0
      ],
      "min": [
        -1.0,
        0.0,
        -1.0,
        1.0
      ]
    },
    {
      "bufferView": 9,
      "componentType": 5126,
      "count": 24,
      "type": "VEC2",
      "max": [
        1.0,
        1.0
      ],
      "min": [
        0.0,
        0.0
      ]
    },
    {
      "bufferView": 10,
      "componentType": 5126,
      "count": 24,
      "type": "VEC2",
      "max": [
        0.9966580867767334,
        0.65283584594726563
      ],
      "min": [
        0.0040557663887739182,
        0.0040557663887739182
      ]
    },
    {
      "bufferView": 11,
      "componentType": 5125,
      "count": 36,
      "type": "SCALAR",
      "max": [
        23.0
      ],
      "min": [
        0.0
      ]
    }
  ],
  "asset": {
    "generator": "Canvas Tools (2018.2.13f1)",
    "version": "2.0"
  },
  "buffers": [
    {
      "uri": "TestScene.bin",
      "byteLength": 10664
    }
  ],
  "bufferViews": [
    {
      "buffer": 0,
      "byteLength": 1452
    },
    {
      "buffer": 0,
      "byteOffset": 1452,
      "byteLength": 1452
    },
    {
      "buffer": 0,
      "byteOffset": 2904,
      "byteLength": 1936
    },
    {
      "buffer": 0,
      "byteOffset": 4840,
      "byteLength": 968
    },
    {
      "buffer": 0,
      "byteOffset": 5808,
      "byteLength": 968
    },
    {
      "buffer": 0,
      "byteOffset": 6776,
      "byteLength": 2400
    },
    {
      "buffer": 0,
      "byteOffset": 9176,
      "byteLength": 288
    },
    {
      "buffer": 0,
      "byteOffset": 9464,
      "byteLength": 288
    },
    {
      "buffer": 0,
      "byteOffset": 9752,
      "byteLength": 384
    },
    {
      "buffer": 0,
      "byteOffset": 10136,
      "byteLength": 192
    },
    {
      "buffer": 0,
      "byteOffset": 10328,
      "byteLength": 192
    },
    {
      "buffer": 0,
      "byteOffset": 10520,
      "byteLength": 144
    }
  ],
  "images": [
    {
      "uri": "assets/TestScene_Lightmap-0_comp_light.png",
      "name": "TestScene_Lightmap-0_comp_light"
    },
    {
      "uri": "assets/TestScene_Lightmap-0_comp_light.png",
      "name": "TestScene_Lightmap-0_comp_light"
    },
    {
      "uri": "assets/TestScene_Lightmap-0_comp_light.png",
      "name": "TestScene_Lightmap-0_comp_light"
    }
  ],
  "materials": [
    {
      "pbrMetallicRoughness": {
        "metallicFactor": 0.0,
        "roughnessFactor": 0.5
      },
      "commonConstant": {
        "hdrPacking": "none",
        "lightmapTexture": {
          "index": 0,
          "texCoord": 1,
          "extensions": {
            "KHR_texture_transform": {
              "scale": [
                0.78125,
                0.78125
              ],
              "texCoord": 1
            }
          }
        }
      },
      "name": "M_WTF5.Instance.232c1e1dcb5a4bc78873c1ac74aa0806",
      "extras": {
        "metadata": {
          "glossyreflections": true,
          "specularhighlights": true
        }
      }
    },
    {
      "pbrMetallicRoughness": {
        "metallicFactor": 0.0,
        "roughnessFactor": 0.5
      },
      "commonConstant": {
        "hdrPacking": "none",
        "lightmapTexture": {
          "index": 1,
          "texCoord": 1,
          "extensions": {
            "KHR_texture_transform": {
              "offset": [
                0.239268735,
                0.7841906
              ],
              "scale": [
                0.238089427,
                0.238089427
              ],
              "texCoord": 1
            }
          }
        }
      },
      "name": "M_WTF6.Instance.04bdf67c5a9c4fbfa5ff462752a85528",
      "extras": {
        "metadata": {
          "glossyreflections": true,
          "specularhighlights": true
        }
      }
    },
    {
      "pbrMetallicRoughness": {
        "metallicFactor": 0.0,
        "roughnessFactor": 0.5
      },
      "commonConstant": {
        "hdrPacking": "none",
        "lightmapTexture": {
          "index": 2,
          "texCoord": 1,
          "extensions": {
            "KHR_texture_transform": {
              "offset": [
                -0.0009656351,
                0.7841906
              ],
              "scale": [
                0.238089427,
                0.238089427
              ],
              "texCoord": 1
            }
          }
        }
      },
      "name": "M_WTF7.Instance.3d2b9eefab4e42a88d1e6993552dd279",
      "extras": {
        "metadata": {
          "glossyreflections": true,
          "specularhighlights": true
        }
      }
    }
  ],
  "meshes": [
    {
      "primitives": [
        {
          "attributes": {
            "POSITION": 0,
            "NORMAL": 1,
            "TANGENT": 2,
            "TEXCOORD_0": 3,
            "TEXCOORD_1": 4
          },
          "indices": 5,
          "material": 0
        }
      ],
      "name": "Plane"
    },
    {
      "primitives": [
        {
          "attributes": {
            "POSITION": 6,
            "NORMAL": 7,
            "TANGENT": 8,
            "TEXCOORD_0": 9,
            "TEXCOORD_1": 10
          },
          "indices": 11,
          "material": 1
        }
      ],
      "name": "Cube 1"
    },
    {
      "primitives": [
        {
          "attributes": {
            "POSITION": 6,
            "NORMAL": 7,
            "TANGENT": 8,
            "TEXCOORD_0": 9,
            "TEXCOORD_1": 10
          },
          "indices": 11,
          "material": 2
        }
      ],
      "name": "Cube 2"
    }
  ],
  "nodes": [
    {
      "rotation": [
        0.0,
        0.0,
        0.0,
        -1.0
      ],
      "name": "SceneController",
      "extras": {
        "metadata": {
          "id": 13894,
          "tag": "Untagged",
          "prefab": false,
          "joint": null,
          "layer": 0,
          "layername": "Default",
          "renderer": null,
          "components": [
            {
              "alias": "script",
              "klass": "SkyboxController",
              "props": [
                {
                  "type": "String",
                  "name": "helloWorld",
                  "value": "Hello World"
                }
              ]
            }
          ]
        }
      }
    },
    {
      "rotation": [
        0.408217877,
        -0.234569684,
        -0.109381631,
        -0.8754261
      ],
      "scale": [
        1.0,
        1.0,
        0.99999994
      ],
      "translation": [
        0.0,
        5.0,
        0.0
      ],
      "name": "Directional Light",
      "extras": {
        "metadata": {
          "id": 13922,
          "tag": "Untagged",
          "prefab": false,
          "joint": null,
          "layer": 0,
          "layername": "Default",
          "renderer": null,
          "components": null
        }
      }
    },
    {
      "rotation": [
        0.0,
        0.0,
        0.0,
        -1.0
      ],
      "translation": [
        0.0,
        1.677,
        4.0
      ],
      "name": "Main Camera",
      "extras": {
        "metadata": {
          "id": 13888,
          "tag": "MainCamera",
          "prefab": false,
          "joint": null,
          "layer": 0,
          "layername": "Default",
          "renderer": null,
          "components": [
            {
              "alias": "camera",
              "clearflags": {
                "Key": 0,
                "Value": "Skybox"
              },
              "backgroundcolor": {
                "r": 0.192156866,
                "g": 0.3019608,
                "b": 0.4745098,
                "a": 1.0
              },
              "projectionmatrixmode": 1,
              "sensorsize": {
                "x": 36.0,
                "y": 24.0
              },
              "sensorsize_x": 36.0,
              "sensorsize_y": 24.0,
              "lensshift": {
                "x": 0.0,
                "y": 0.0
              },
              "lensshift_x": 0.0,
              "lensshift_y": 0.0,
              "focallength": 50.0,
              "normalizedviewportrect": {
                "x": 0.0,
                "y": 0.0,
                "position": {
                  "x": 0.0,
                  "y": 0.0
                },
                "center": {
                  "x": 0.5,
                  "y": 0.5
                },
                "min": {
                  "x": 0.0,
                  "y": 0.0
                },
                "max": {
                  "x": 1.0,
                  "y": 1.0
                },
                "width": 1.0,
                "height": 1.0,
                "size": {
                  "x": 1.0,
                  "y": 1.0
                },
                "xMin": 0.0,
                "yMin": 0.0,
                "xMax": 1.0,
                "yMax": 1.0,
                "left": 0.0,
                "right": 1.0,
                "top": 0.0,
                "bottom": 1.0
              },
              "normalizedviewportrect_x": 0.0,
              "normalizedviewportrect_y": 0.0,
              "normalizedviewportrect_width": 1.0,
              "normalizedviewportrect_height": 1.0,
              "nearclipplane": 0.3,
              "farclipplane": 1000.0,
              "fieldofview": 60.0,
              "orthographic": false,
              "orthographicsize": 5.0,
              "depth": -1.0,
              "cullingmask": -1,
              "renderingpath": {
                "Key": 0,
                "Value": "Use Graphics Settings"
              },
              "targettexture": null,
              "targetdisplay": 0,
              "targeteye": 3,
              "hdr": true,
              "allowmsaa": true,
              "allowdynamicresolution": false,
              "forceintort": false,
              "occlusionculling": true,
              "stereoconvergence": 10.0,
              "stereoseparation": 0.022,
              "aspectratio": 1.4746424,
              "projection": 0,
              "maincamera": true
            },
            {
              "alias": "audiolistener"
            }
          ]
        }
      }
    },
    {
      "mesh": 0,
      "rotation": [
        0.0,
        0.0,
        0.0,
        -1.0
      ],
      "name": "Plane",
      "extras": {
        "metadata": {
          "id": 13880,
          "tag": "Untagged",
          "prefab": false,
          "joint": null,
          "layer": 0,
          "layername": "Default",
          "renderer": {
            "lightmapstatic": true,
            "lightmappermode": "Indirect",
            "shadowcastingmode": {
              "Key": 0,
              "Value": "Plane (UnityEngine.MeshRenderer)"
            },
            "receiveshadows": true,
            "sortingorder": 0,
            "sortinglayerid": 0,
            "sortinglayername": "Default",
            "renderinglayermask": 4294967295,
            "allowdynamicocclusion": true,
            "castshadowslightmap": true
          },
          "components": null
        }
      }
    },
    {
      "mesh": 1,
      "rotation": [
        0.0,
        0.0,
        0.0,
        -1.0
      ],
      "translation": [
        1.0,
        0.5,
        0.424
      ],
      "name": "Cube 1",
      "extras": {
        "metadata": {
          "id": 13916,
          "tag": "Untagged",
          "prefab": false,
          "joint": null,
          "layer": 0,
          "layername": "Default",
          "renderer": {
            "lightmapstatic": true,
            "lightmappermode": "Indirect",
            "shadowcastingmode": {
              "Key": 1,
              "Value": "Cube 1 (UnityEngine.MeshRenderer)"
            },
            "receiveshadows": false,
            "sortingorder": 0,
            "sortinglayerid": 0,
            "sortinglayername": "Default",
            "renderinglayermask": 4294967295,
            "allowdynamicocclusion": true,
            "castshadowslightmap": true
          },
          "components": [
            {
              "alias": "boxcollider",
              "material": null,
              "istrigger": false,
              "size": {
                "x": 1.0,
                "y": 1.0,
                "z": 1.0
              },
              "size_x": 1.0,
              "size_y": 1.0,
              "size_z": 1.0,
              "center": {
                "x": 0.0,
                "y": 0.0,
                "z": 0.0
              },
              "center_x": 0.0,
              "center_y": 0.0,
              "center_z": 0.0
            }
          ]
        }
      }
    },
    {
      "mesh": 2,
      "rotation": [
        0.0,
        0.0,
        0.0,
        -1.0
      ],
      "translation": [
        -1.0,
        0.5,
        -0.727
      ],
      "name": "Cube 2",
      "extras": {
        "metadata": {
          "id": 13906,
          "tag": "Untagged",
          "prefab": false,
          "joint": null,
          "layer": 0,
          "layername": "Default",
          "renderer": {
            "lightmapstatic": true,
            "lightmappermode": "Indirect",
            "shadowcastingmode": {
              "Key": 1,
              "Value": "Cube 2 (UnityEngine.MeshRenderer)"
            },
            "receiveshadows": false,
            "sortingorder": 0,
            "sortinglayerid": 0,
            "sortinglayername": "Default",
            "renderinglayermask": 4294967295,
            "allowdynamicocclusion": true,
            "castshadowslightmap": true
          },
          "components": [
            {
              "alias": "boxcollider",
              "material": null,
              "istrigger": false,
              "size": {
                "x": 1.0,
                "y": 1.0,
                "z": 1.0
              },
              "size_x": 1.0,
              "size_y": 1.0,
              "size_z": 1.0,
              "center": {
                "x": 0.0,
                "y": 0.0,
                "z": 0.0
              },
              "center_x": 0.0,
              "center_y": 0.0,
              "center_z": 0.0
            }
          ]
        }
      }
    }
  ],
  "samplers": [
    {
      "extras": {
        "metadata": {
          "filtermode": 1,
          "anisolevel": 2
        }
      }
    }
  ],
  "scene": 0,
  "scenes": [
    {
      "nodes": [
        0,
        1,
        2,
        3,
        4,
        5
      ],
      "name": "TestScene",
      "extras": {
        "metadata": {
          "project": {
            "engine": "PlayCanvasToolkit",
            "script": "PlayCanvasToolkit.js"
          },
          "controller": {
            "alias": "defaultscenecontroller",
            "sceneoptions_enablephysics": true,
            "sceneoptions_defaultgravity": {
              "x": 0.0,
              "y": -9.81,
              "z": 0.0
            },
            "sceneoptions_defaultgravity_x": 0.0,
            "sceneoptions_defaultgravity_y": -9.81,
            "sceneoptions_defaultgravity_z": 0.0,
            "sceneoptions_defaultellipsoid": {
              "x": 0.5,
              "y": 1.0,
              "z": 0.5
            },
            "sceneoptions_defaultellipsoid_x": 0.5,
            "sceneoptions_defaultellipsoid_y": 1.0,
            "sceneoptions_defaultellipsoid_z": 0.5,
            "sceneoptions_navigationmesh": {
              "Key": 1,
              "Value": "EnableNavigation"
            },
            "sceneoptions_importscenemeshes_array_size": 0,
            "configoptions_enableinput": true,
            "configoptions_pointerlock": false,
            "configoptions_captureinput": false,
            "configoptions_preventdefault": false,
            "configoptions_inputproperties_paddeadstick": 0.25,
            "configoptions_inputproperties_padlstickxinvert": false,
            "configoptions_inputproperties_padlstickyinvert": false,
            "configoptions_inputproperties_padrstickxinvert": false,
            "configoptions_inputproperties_padrstickyinvert": false,
            "configoptions_inputproperties_padlsticklevel": 1.0,
            "configoptions_inputproperties_padrsticklevel": 1.0,
            "configoptions_inputproperties_wheeldeadzone": 0.1,
            "configoptions_inputproperties_mouseangularlevel": 1.0,
            "skyboxoptions_skyboxgradient": 0.5,
            "skyboxoptions_localcubemappos": {
              "x": 0.0,
              "y": 0.0,
              "z": 0.0
            },
            "skyboxoptions_localcubemappos_x": 0.0,
            "skyboxoptions_localcubemappos_y": 0.0,
            "skyboxoptions_localcubemappos_z": 0.0,
            "skyboxoptions_localcubemapbox": {
              "x": 0.0,
              "y": 0.0,
              "z": 0.0
            },
            "skyboxoptions_localcubemapbox_x": 0.0,
            "skyboxoptions_localcubemapbox_y": 0.0,
            "skyboxoptions_localcubemapbox_z": 0.0
          },
          "ambientlightintensity": 1.0,
          "ambientgroundcolor": {
            "r": 0.0,
            "g": 0.0,
            "b": 0.0,
            "a": 1.0
          },
          "ambientskycolor": {
            "r": 0.7924528,
            "g": 0.7924528,
            "b": 0.7924528,
            "a": 1.0
          },
          "fogmode": 0,
          "fogtype": "None",
          "fogdensity": 0.01,
          "fogcolor": {
            "r": 0.5,
            "g": 0.5,
            "b": 0.5,
            "a": 1.0
          },
          "fogstart": 0.0,
          "fogend": 300.0,
          "skybox": {
            "cubemap": {
              "env_name": "Country_env",
              "env_source": 6
            },
            "textures": {
              "posx_name": "Country_posx",
              "posx_source": 0,
              "negx_name": "Country_negx",
              "negx_source": 1,
              "posy_name": "Country_posy",
              "posy_source": 2,
              "negy_name": "Country_negy",
              "negy_source": 3,
              "posz_name": "Country_posz",
              "posz_source": 4,
              "negz_name": "Country_negz",
              "negz_source": 5
            },
            "anisolevel": 2,
            "maxreflect": false,
            "hdrskybox": true,
            "hdrpacking": "1"
          },
          "probes": null,
          "navmesh": null,
          "assets": [
            {
              "name": "Country_posx",
              "uri": "assets/Country_posx.png",
              "mimeType": "image/png",
              "assetType": "texture"
            },
            {
              "name": "Country_negx",
              "uri": "assets/Country_negx.png",
              "mimeType": "image/png",
              "assetType": "texture"
            },
            {
              "name": "Country_posy",
              "uri": "assets/Country_posy.png",
              "mimeType": "image/png",
              "assetType": "texture"
            },
            {
              "name": "Country_negy",
              "uri": "assets/Country_negy.png",
              "mimeType": "image/png",
              "assetType": "texture"
            },
            {
              "name": "Country_posz",
              "uri": "assets/Country_posz.png",
              "mimeType": "image/png",
              "assetType": "texture"
            },
            {
              "name": "Country_negz",
              "uri": "assets/Country_negz.png",
              "mimeType": "image/png",
              "assetType": "texture"
            },
            {
              "name": "Country_env",
              "uri": "assets/Country_env.dds",
              "mimeType": "image/dds",
              "assetType": "cubemap"
            }
          ]
        }
      }
    }
  ],
  "textures": [
    {
      "sampler": 0,
      "source": 0,
      "name": "TestScene_Lightmap-0_comp_light"
    },
    {
      "sampler": 0,
      "source": 1,
      "name": "TestScene_Lightmap-0_comp_light"
    },
    {
      "sampler": 0,
      "source": 2,
      "name": "TestScene_Lightmap-0_comp_light"
    }
  ]
}